<svg width="16" height="16" viewBox="0 0 16 16" fill="none" xmlns="http://www.w3.org/2000/svg">
<path d="M13.4773 8C13.4773 11.025 11.025 13.4773 8 13.4773C4.97499 13.4773 2.52273 11.025 2.52273 8C2.52273 4.97499 4.97499 2.52273 8 2.52273C11.025 2.52273 13.4773 4.97499 13.4773 8ZM8 15.25C12.0041 15.25 15.25 12.0041 15.25 8C15.25 3.99594 12.0041 0.75 8 0.75C3.99594 0.75 0.75 3.99594 0.75 8C0.75 12.0041 3.99594 15.25 8 15.25Z" fill="white" stroke="#E325DC" stroke-width="0.5"/>
<path d="M6.06905 8.00037L8 6.06942L9.93095 8.00037L8 9.93131L6.06905 8.00037ZM8.93828 4.77759C8.42008 4.2594 7.57992 4.2594 7.06172 4.77759L4.77722 7.06209C4.25903 7.58029 4.25903 8.42045 4.77722 8.93865L7.06172 11.2231C7.57992 11.7413 8.42008 11.7413 8.93828 11.2231L11.2228 8.93865C11.741 8.42045 11.741 7.58029 11.2228 7.06209L8.93828 4.77759Z" fill="white" stroke="#E325DC" stroke-width="0.5"/>
</svg>
