<svg width="43" height="57" viewBox="0 0 43 57" fill="none" xmlns="http://www.w3.org/2000/svg">
<g clip-path="url(#clip0_517_9786)">
<path d="M33.4531 4.95662V2.47754L38.2312 4.95662V7.43435L33.4531 4.95662Z" fill="#7694BB"/>
<path d="M31.0635 8.67304V6.19531L35.8416 8.67304V11.1521L31.0635 8.67304Z" fill="#7694BB"/>
<path d="M28.6738 12.3918V9.91406L33.4533 12.3918V14.8695L28.6738 12.3918Z" fill="#7694BB"/>
<path d="M26.2842 16.109V13.6299L31.0636 16.109V18.5867L26.2842 16.109Z" fill="#7694BB"/>
<path d="M23.8945 19.8264V17.3486L28.674 19.8264V22.3054L23.8945 19.8264Z" fill="#7694BB"/>
<path d="M21.5049 23.5435V21.0645L26.2843 23.5435V26.0213L21.5049 23.5435Z" fill="#7694BB"/>
<path d="M14.3398 34.6926V32.2148L19.1193 34.6926V37.1703L14.3398 34.6926Z" fill="#7694BB"/>
<path d="M11.9512 38.4107V35.9316L16.7293 38.4107V40.8885L11.9512 38.4107Z" fill="#7694BB"/>
<path d="M9.56152 42.1271V39.6494L14.3396 42.1271V44.6062L9.56152 42.1271Z" fill="#7694BB"/>
<path d="M7.17188 45.8443V43.3652L11.9513 45.8443V48.322L7.17188 45.8443Z" fill="#7694BB"/>
<path d="M33.4532 4.95703L31.0635 6.1959L35.8416 8.67363L38.2313 7.43476L33.4532 4.95703Z" fill="white"/>
<path d="M31.0635 8.67383L28.6738 9.91405L33.4533 12.3918L35.8416 11.1529L31.0635 8.67383Z" fill="white"/>
<path d="M28.6739 12.3916L26.2842 13.6305L31.0636 16.1096L33.4533 14.8693L28.6739 12.3916Z" fill="white"/>
<path d="M26.2842 16.1094L23.8945 17.3482L28.674 19.826L31.0637 18.5871L26.2842 16.1094Z" fill="white"/>
<path d="M23.8946 19.8262L21.5049 21.065L26.2843 23.5441L28.674 22.3053L23.8946 19.8262Z" fill="white"/>
<path d="M21.5046 23.5439L19.1162 24.7828L23.8943 27.2605L26.284 26.0217L21.5046 23.5439Z" fill="white"/>
<path d="M14.3395 34.6924L11.9512 35.9312L16.7293 38.4103L19.119 37.1701L14.3395 34.6924Z" fill="white"/>
<path d="M11.9512 38.4102L9.56152 39.649L14.3396 42.1268L16.7293 40.8879L11.9512 38.4102Z" fill="white"/>
<path d="M9.56159 42.127L7.17188 43.3658L11.9513 45.8449L14.3397 44.606L9.56159 42.127Z" fill="white"/>
<path d="M7.17194 45.8447L4.78223 47.0836L9.56166 49.5613L11.9514 48.3225L7.17194 45.8447Z" fill="white"/>
<path d="M33.4531 2.47773L38.2312 0L42.9998 2.47773L38.2312 4.95682L33.4531 2.47773Z" fill="white"/>
<path d="M33.4533 37.1743V42.1312L4.77943 27.2607V57.0003L0 54.5225V19.8262L33.4533 37.1743Z" fill="#7694BB"/>
<path d="M43.0001 2.47754V37.1739L33.4534 42.1307V37.1739L38.2315 34.6962V14.8689L35.831 16.1091V18.5869L33.4534 19.8257V22.3048L31.0529 23.5437V26.0214L28.674 27.2603V29.7448L23.8945 27.2603L26.2842 26.0214V23.5437L28.674 22.3048V19.8257L31.0637 18.5869V16.1091L33.4534 14.8689V12.3912L35.8418 11.1523V8.67322L38.2315 7.43436V4.95662L43.0001 2.47754Z" fill="#E28D9C"/>
<path d="M4.7793 27.2607V57.0003L14.3368 52.0435V49.5657L16.7265 48.3269V45.8478L19.1041 44.6089V42.1312L21.4938 40.8923V38.4132L23.8943 37.1744L19.1162 34.6966V37.1744L16.7265 38.4132V40.8923L14.3368 42.1312V44.6089L11.9471 45.8478V48.3269L9.55737 49.5657V29.7452L4.7793 27.2607Z" fill="#E28D9C"/>
<path d="M38.2312 14.8691L35.8307 16.1094V18.5871L33.4531 19.826V32.2227L38.2312 34.6964V14.8691Z" fill="#7694BB"/>
<path d="M37.1054 34.1125L37.1067 33.7852L34.8966 32.6424L34.586 32.8061L4.77943 17.3486L0 19.8264L33.4533 37.1745L38.2314 34.6968L37.1054 34.1125Z" fill="white"/>
<path d="M35.9523 27.7773C35.3353 27.7773 34.833 28.3778 34.833 29.1176L34.8911 32.6341L37.1093 33.7715V29.1569C37.1093 28.4171 36.5706 27.7773 35.9523 27.7773Z" fill="#236586"/>
<path d="M34.8948 32.6405L34.5762 32.8082V29.2295C34.5762 28.4573 34.9367 27.7986 35.5402 27.7418C35.7236 27.7171 35.9102 27.7328 36.087 27.7878C35.8777 27.7877 35.6717 27.8398 35.4875 27.9393C35.2965 28.0752 35.1418 28.256 35.037 28.4659C34.9322 28.6759 34.8806 28.9084 34.8867 29.143L34.8948 32.6405Z" fill="#C5AFCD"/>
</g>
<defs>
<clipPath id="clip0_517_9786">
<rect width="43" height="57" fill="white"/>
</clipPath>
</defs>
</svg>
