<svg width="24" height="24" viewBox="0 0 24 24" fill="none" xmlns="http://www.w3.org/2000/svg">
<path d="M6.75 9V7.25C6.75 4.35025 9.1 2 12 2C14.9 2 17.25 4.349 17.25 7.25V9H17.5002C19.0182 9 20.25 10.2327 20.25 11.75V19.25C20.25 20.7692 19.0202 22 17.5002 22H6.5C4.98175 22 3.75 20.7672 3.75 19.25V11.75C3.75 10.2307 4.97975 9 6.49975 9H6.75ZM8.25 9H15.75V7.25C15.75 5.1775 14.0717 3.5 12 3.5C9.9285 3.5 8.25 5.17875 8.25 7.25V9ZM5.25 11.75V19.25C5.25 19.939 5.8105 20.5 6.49975 20.5H17.5C17.6642 20.5002 17.8268 20.468 17.9786 20.4053C18.1303 20.3425 18.2682 20.2504 18.3843 20.1343C18.5004 20.0182 18.5925 19.8803 18.6553 19.7286C18.718 19.5768 18.7502 19.4142 18.75 19.25V11.75C18.75 11.061 18.1895 10.5 17.5002 10.5H6.5C6.33579 10.4998 6.17316 10.532 6.02141 10.5947C5.86967 10.6575 5.73179 10.7496 5.61568 10.8657C5.49956 10.9818 5.4075 11.1197 5.34475 11.2714C5.282 11.4232 5.2498 11.5858 5.25 11.75Z" fill="#C2C2C2"/>
</svg>
