<svg width="136" height="136" viewBox="0 0 136 136" fill="none" xmlns="http://www.w3.org/2000/svg">
<g clip-path="url(#clip0_819_15804)">
<g filter="url(#filter0_d_819_15804)">
<path d="M91.43 105.298H35.8273C27.177 105.298 20.1445 98.24 20.1445 89.5583V50.2814C20.1445 41.5997 27.177 34.5417 35.8273 34.5417H91.43C98.4464 34.5417 104.662 39.2845 106.552 46.0531C107.209 48.4486 105.815 50.9245 103.428 51.5998C101.042 52.2589 98.5746 50.8602 97.9017 48.4647C97.1008 45.5708 94.4416 43.545 91.43 43.545H35.8273C32.1269 43.545 29.1153 46.5676 29.1153 50.2814V89.5583C29.1153 93.2721 32.1269 96.2947 35.8273 96.2947H91.43C94.5537 96.2947 97.245 94.1725 97.9658 91.1178C98.5425 88.7062 100.961 87.211 103.364 87.7737C105.767 88.3525 107.257 90.7802 106.696 93.1917C105.895 96.5841 103.957 99.6548 101.234 101.841C98.4624 104.076 94.9863 105.298 91.43 105.298Z" fill="white"/>
<path d="M100.764 101.257L100.763 101.257C98.1255 103.384 94.8156 104.548 91.43 104.548H35.8273C27.5937 104.548 20.8945 97.8284 20.8945 89.5583V50.2814C20.8945 42.0113 27.5937 35.2917 35.8273 35.2917H91.43C98.1072 35.2917 104.028 39.8076 105.829 46.2533C106.376 48.2514 105.214 50.3137 103.227 50.8774C101.242 51.4244 99.1863 50.2625 98.6241 48.2629C97.7326 45.0448 94.778 42.795 91.43 42.795H35.8273C31.7101 42.795 28.3653 46.1559 28.3653 50.2814V89.5583C28.3653 93.6838 31.7101 97.0447 35.8273 97.0447H91.43C94.9011 97.0447 97.8946 94.6838 98.6957 91.2905C99.1773 89.2804 101.193 88.0368 103.191 88.5034C105.189 88.986 106.433 91.0089 105.966 93.0208C105.203 96.2497 103.357 99.1748 100.764 101.257Z" stroke="#E325DC" stroke-width="1.5"/>
</g>
<g filter="url(#filter1_d_819_15804)">
<path d="M91.43 105.298H35.8273C27.177 105.298 20.1445 98.24 20.1445 89.5583V50.2814C20.1445 41.5997 27.177 34.5417 35.8273 34.5417H91.43C98.4464 34.5417 104.662 39.2845 106.552 46.0531C107.209 48.4486 105.815 50.9245 103.428 51.5998C101.042 52.2589 98.5746 50.8602 97.9017 48.4647C97.1008 45.5708 94.4416 43.545 91.43 43.545H35.8273C32.1269 43.545 29.1153 46.5676 29.1153 50.2814V89.5583C29.1153 93.2721 32.1269 96.2947 35.8273 96.2947H91.43C94.5537 96.2947 97.245 94.1725 97.9658 91.1178C98.5425 88.7062 100.961 87.211 103.364 87.7737C105.767 88.3525 107.257 90.7802 106.696 93.1917C105.895 96.5841 103.957 99.6548 101.234 101.841C98.4624 104.076 94.9863 105.298 91.43 105.298Z" fill="white"/>
<path d="M100.764 101.257L100.763 101.257C98.1255 103.384 94.8156 104.548 91.43 104.548H35.8273C27.5937 104.548 20.8945 97.8284 20.8945 89.5583V50.2814C20.8945 42.0113 27.5937 35.2917 35.8273 35.2917H91.43C98.1072 35.2917 104.028 39.8076 105.829 46.2533C106.376 48.2514 105.214 50.3137 103.227 50.8774C101.242 51.4244 99.1863 50.2625 98.6241 48.2629C97.7326 45.0448 94.778 42.795 91.43 42.795H35.8273C31.7101 42.795 28.3653 46.1559 28.3653 50.2814V89.5583C28.3653 93.6838 31.7101 97.0447 35.8273 97.0447H91.43C94.9011 97.0447 97.8946 94.6838 98.6957 91.2905C99.1773 89.2804 101.193 88.0368 103.191 88.5034C105.189 88.986 106.433 91.0089 105.966 93.0208C105.203 96.2497 103.357 99.1748 100.764 101.257Z" stroke="#E325DC" stroke-width="1.5"/>
</g>
<g filter="url(#filter2_d_819_15804)">
<path d="M99.6314 86.1017H86.9923C78.1016 86.1017 70.877 78.8508 70.877 69.9279C70.877 61.005 78.1016 53.7542 86.9923 53.7542H99.6314C108.522 53.7542 115.747 61.005 115.747 69.9279C115.747 78.8347 108.506 86.1017 99.6314 86.1017ZM86.9923 62.7414C83.0515 62.7414 79.8477 65.9568 79.8477 69.9118C79.8477 73.8669 83.0515 77.0823 86.9923 77.0823H99.6314C103.572 77.0823 106.776 73.8669 106.776 69.9118C106.776 65.9568 103.572 62.7414 99.6314 62.7414H86.9923Z" fill="white"/>
<path d="M99.6314 85.3517H86.9923C78.5184 85.3517 71.627 78.4392 71.627 69.9279C71.627 61.4167 78.5184 54.5042 86.9923 54.5042H99.6314C108.105 54.5042 114.997 61.4167 114.997 69.9279C114.997 78.4231 108.089 85.3517 99.6314 85.3517ZM86.9923 61.9914C82.6348 61.9914 79.0977 65.5452 79.0977 69.9118C79.0977 74.2785 82.6348 77.8323 86.9923 77.8323H99.6314C103.989 77.8323 107.526 74.2785 107.526 69.9118C107.526 65.5452 103.989 61.9914 99.6314 61.9914H86.9923Z" stroke="#E325DC" stroke-width="1.5"/>
</g>
<g filter="url(#filter3_d_819_15804)">
<path d="M99.6314 86.1017H86.9923C78.1016 86.1017 70.877 78.8508 70.877 69.9279C70.877 61.005 78.1016 53.7542 86.9923 53.7542H99.6314C108.522 53.7542 115.747 61.005 115.747 69.9279C115.747 78.8347 108.506 86.1017 99.6314 86.1017ZM86.9923 62.7414C83.0515 62.7414 79.8477 65.9568 79.8477 69.9118C79.8477 73.8669 83.0515 77.0823 86.9923 77.0823H99.6314C103.572 77.0823 106.776 73.8669 106.776 69.9118C106.776 65.9568 103.572 62.7414 99.6314 62.7414H86.9923Z" fill="white"/>
<path d="M99.6314 85.3517H86.9923C78.5184 85.3517 71.627 78.4392 71.627 69.9279C71.627 61.4167 78.5184 54.5042 86.9923 54.5042H99.6314C108.105 54.5042 114.997 61.4167 114.997 69.9279C114.997 78.4231 108.089 85.3517 99.6314 85.3517ZM86.9923 61.9914C82.6348 61.9914 79.0977 65.5452 79.0977 69.9118C79.0977 74.2785 82.6348 77.8323 86.9923 77.8323H99.6314C103.989 77.8323 107.526 74.2785 107.526 69.9118C107.526 65.5452 103.989 61.9914 99.6314 61.9914H86.9923Z" stroke="#E325DC" stroke-width="1.5"/>
</g>
<path d="M88.3867 70.0238C88.3867 70.0407 88.3934 70.057 88.4053 70.0689C88.4172 70.0809 88.4334 70.0876 88.4502 70.0876C88.4671 70.0876 88.4832 70.0809 88.4951 70.0689C88.5071 70.057 88.5138 70.0407 88.5138 70.0238C88.5138 70.0069 88.5071 69.9907 88.4951 69.9788C88.4832 69.9668 88.4671 69.9601 88.4502 69.9601C88.4334 69.9601 88.4172 69.9668 88.4053 69.9788C88.3934 69.9907 88.3867 70.0069 88.3867 70.0238Z" fill="#E325DC"/>
<path d="M83.6504 70.0243C83.6504 72.6857 85.7959 74.8403 88.4498 74.8403C91.1038 74.8403 93.2493 72.6857 93.2493 70.0243C93.2493 67.363 91.1038 65.2084 88.4498 65.2084C85.7959 65.2084 83.6504 67.363 83.6504 70.0243ZM84.2785 70.0243C84.2785 67.7178 86.1538 65.837 88.4498 65.837C90.7458 65.837 92.6211 67.7178 92.6211 70.0243C92.6211 72.3309 90.7458 74.2117 88.4498 74.2117C86.1538 74.2117 84.2785 72.3309 84.2785 70.0243Z" fill="#E325DC" stroke="#E325DC" stroke-width="0.5"/>
<g filter="url(#filter4_d_819_15804)">
<path d="M9.17096 7.29066C11.0933 7.29066 12.6471 8.85016 12.6471 10.7794C12.6471 12.7087 11.0933 14.2682 9.17096 14.2682C7.24865 14.2682 5.69479 12.7087 5.69479 10.7794C5.69479 8.85016 7.24865 7.29066 9.17096 7.29066ZM9.17096 0.859741C3.72443 0.859741 -0.712891 5.31315 -0.712891 10.7794C-0.712891 16.2457 3.72443 20.6991 9.17096 20.6991C14.6175 20.6991 19.0548 16.2457 19.0548 10.7794C19.0548 5.31315 14.6175 0.859741 9.17096 0.859741Z" fill="white"/>
<path d="M13.1471 10.7794C13.1471 8.57573 11.3711 6.79066 9.17096 6.79066C6.97081 6.79066 5.19479 8.57573 5.19479 10.7794C5.19479 12.9831 6.97081 14.7682 9.17096 14.7682C11.3711 14.7682 13.1471 12.9831 13.1471 10.7794ZM-0.212891 10.7794C-0.212891 5.58759 4.00228 1.35974 9.17096 1.35974C14.3396 1.35974 18.5548 5.58759 18.5548 10.7794C18.5548 15.9713 14.3396 20.1991 9.17096 20.1991C4.00228 20.1991 -0.212891 15.9713 -0.212891 10.7794Z" stroke="#E325DC"/>
</g>
<g filter="url(#filter5_d_819_15804)">
<path d="M9.17096 7.29066C11.0933 7.29066 12.6471 8.85016 12.6471 10.7794C12.6471 12.7087 11.0933 14.2682 9.17096 14.2682C7.24865 14.2682 5.69479 12.7087 5.69479 10.7794C5.69479 8.85016 7.24865 7.29066 9.17096 7.29066ZM9.17096 0.859741C3.72443 0.859741 -0.712891 5.31315 -0.712891 10.7794C-0.712891 16.2457 3.72443 20.6991 9.17096 20.6991C14.6175 20.6991 19.0548 16.2457 19.0548 10.7794C19.0548 5.31315 14.6175 0.859741 9.17096 0.859741Z" fill="white"/>
<path d="M13.1471 10.7794C13.1471 8.57573 11.3711 6.79066 9.17096 6.79066C6.97081 6.79066 5.19479 8.57573 5.19479 10.7794C5.19479 12.9831 6.97081 14.7682 9.17096 14.7682C11.3711 14.7682 13.1471 12.9831 13.1471 10.7794ZM-0.212891 10.7794C-0.212891 5.58759 4.00228 1.35974 9.17096 1.35974C14.3396 1.35974 18.5548 5.58759 18.5548 10.7794C18.5548 15.9713 14.3396 20.1991 9.17096 20.1991C4.00228 20.1991 -0.212891 15.9713 -0.212891 10.7794Z" stroke="#E325DC"/>
</g>
<g filter="url(#filter6_d_819_15804)">
<path d="M10.3417 136.649H10.3738C11.6873 136.649 12.7606 135.588 12.7766 134.269L12.9368 123.095C12.9529 121.761 11.8956 120.668 10.566 120.652H10.534C9.22038 120.652 8.14709 121.713 8.13107 123.031L7.97088 134.205C7.95486 135.539 9.01213 136.633 10.3417 136.649Z" fill="white"/>
<path d="M12.4267 134.264L12.4267 134.265C12.413 135.392 11.4951 136.299 10.3738 136.299H10.3439C9.21104 136.284 8.30734 135.352 8.32085 134.209C8.32085 134.209 8.32086 134.209 8.32086 134.209L8.48104 123.036L8.48105 123.035C8.49475 121.908 9.41263 121.002 10.534 121.002H10.5638C11.6966 121.017 12.6003 121.948 12.5869 123.091C12.5869 123.091 12.5869 123.091 12.5869 123.091L12.4267 134.264Z" stroke="#E325DC" stroke-width="0.7"/>
</g>
<g filter="url(#filter7_d_819_15804)">
<path d="M10.3417 136.649H10.3738C11.6873 136.649 12.7606 135.588 12.7766 134.269L12.9368 123.095C12.9529 121.761 11.8956 120.668 10.566 120.652H10.534C9.22038 120.652 8.14709 121.713 8.13107 123.031L7.97088 134.205C7.95486 135.539 9.01213 136.633 10.3417 136.649Z" fill="white"/>
<path d="M12.4267 134.264L12.4267 134.265C12.413 135.392 11.4951 136.299 10.3738 136.299H10.3439C9.21104 136.284 8.30734 135.352 8.32085 134.209C8.32085 134.209 8.32086 134.209 8.32086 134.209L8.48104 123.036L8.48105 123.035C8.49475 121.908 9.41263 121.002 10.534 121.002H10.5638C11.6966 121.017 12.6003 121.948 12.5869 123.091C12.5869 123.091 12.5869 123.091 12.5869 123.091L12.4267 134.264Z" stroke="#E325DC" stroke-width="0.7"/>
</g>
<g filter="url(#filter8_d_819_15804)">
<path d="M18.4137 128.723V128.755C18.3977 130.089 17.3084 131.15 15.9788 131.134L4.84545 130.973C3.53188 130.957 2.47461 129.88 2.47461 128.562V128.53C2.49063 127.195 3.57994 126.134 4.90953 126.15L16.0429 126.311C17.3725 126.343 18.4137 127.42 18.4137 128.723Z" fill="white"/>
<path d="M4.8505 130.623L4.84973 130.623C3.72951 130.61 2.82461 129.69 2.82461 128.562V128.532C2.83938 127.392 3.76948 126.487 4.9049 126.5C4.90504 126.5 4.90517 126.5 4.9053 126.5L16.0361 126.661C17.1756 126.689 18.0637 127.611 18.0637 128.723V128.753C18.0489 129.893 17.1188 130.798 15.9834 130.784C15.9833 130.784 15.9832 130.784 15.983 130.784L4.8505 130.623Z" stroke="#E325DC" stroke-width="0.7"/>
</g>
<g filter="url(#filter9_d_819_15804)">
<path d="M18.4137 128.723V128.755C18.3977 130.089 17.3084 131.15 15.9788 131.134L4.84545 130.973C3.53188 130.957 2.47461 129.88 2.47461 128.562V128.53C2.49063 127.195 3.57994 126.134 4.90953 126.15L16.0429 126.311C17.3725 126.343 18.4137 127.42 18.4137 128.723Z" fill="white"/>
<path d="M4.8505 130.623L4.84973 130.623C3.72951 130.61 2.82461 129.69 2.82461 128.562V128.532C2.83938 127.392 3.76948 126.487 4.9049 126.5C4.90504 126.5 4.90517 126.5 4.9053 126.5L16.0361 126.661C17.1756 126.689 18.0637 127.611 18.0637 128.723V128.753C18.0489 129.893 17.1188 130.798 15.9834 130.784C15.9833 130.784 15.9832 130.784 15.983 130.784L4.8505 130.623Z" stroke="#E325DC" stroke-width="0.7"/>
</g>
<g filter="url(#filter10_d_819_15804)">
<path fill-rule="evenodd" clip-rule="evenodd" d="M124.748 128.401C124.748 128.796 124.825 129.187 124.976 129.552C125.126 129.917 125.347 130.249 125.626 130.528C125.904 130.807 126.234 131.029 126.598 131.18C126.962 131.331 127.351 131.409 127.745 131.409C128.138 131.409 128.528 131.331 128.892 131.18C129.255 131.029 129.586 130.807 129.864 130.528C130.142 130.249 130.363 129.917 130.514 129.552C130.664 129.187 130.742 128.796 130.742 128.401C130.742 128.006 130.664 127.615 130.514 127.25C130.363 126.885 130.142 126.553 129.864 126.274C129.586 125.995 129.255 125.773 128.892 125.622C128.528 125.471 128.138 125.393 127.745 125.393C127.351 125.393 126.962 125.471 126.598 125.622C126.234 125.773 125.904 125.995 125.626 126.274C125.347 126.553 125.126 126.885 124.976 127.25C124.825 127.615 124.748 128.006 124.748 128.401ZM123.172 130.302C122.923 129.699 122.795 129.053 122.795 128.401C122.795 127.749 122.923 127.103 123.172 126.5C123.42 125.897 123.785 125.349 124.245 124.888C124.704 124.427 125.25 124.061 125.851 123.811C126.451 123.562 127.095 123.433 127.745 123.433C128.395 123.433 129.039 123.562 129.639 123.811C130.24 124.061 130.785 124.427 131.245 124.888C131.705 125.349 132.069 125.897 132.318 126.5C132.567 127.103 132.695 127.749 132.695 128.401C132.695 129.053 132.567 129.699 132.318 130.302C132.069 130.905 131.705 131.453 131.245 131.914C130.785 132.375 130.24 132.741 129.639 132.991C129.039 133.24 128.395 133.369 127.745 133.369C127.095 133.369 126.451 133.24 125.851 132.991C125.25 132.741 124.704 132.375 124.245 131.914C123.785 131.453 123.42 130.905 123.172 130.302Z" fill="white"/>
<path d="M125.207 129.457C125.069 129.122 124.998 128.763 124.998 128.401C124.998 128.039 125.069 127.68 125.207 127.345C125.345 127.011 125.548 126.707 125.803 126.45C126.058 126.194 126.361 125.991 126.694 125.853C127.027 125.714 127.384 125.643 127.745 125.643C128.105 125.643 128.463 125.714 128.796 125.853C129.129 125.991 129.432 126.194 129.687 126.45C129.942 126.707 130.145 127.011 130.283 127.345C130.421 127.68 130.492 128.039 130.492 128.401C130.492 128.763 130.421 129.122 130.283 129.457C130.145 129.791 129.942 130.095 129.687 130.352C129.432 130.608 129.129 130.811 128.796 130.949C128.463 131.088 128.105 131.159 127.745 131.159C127.384 131.159 127.027 131.088 126.694 130.949L126.598 131.18L126.694 130.949C126.361 130.811 126.058 130.608 125.803 130.352C125.548 130.095 125.345 129.791 125.207 129.457ZM122.545 128.401C122.545 129.086 122.679 129.764 122.941 130.397C123.202 131.03 123.585 131.606 124.068 132.09C124.55 132.575 125.124 132.959 125.755 133.222C126.386 133.484 127.062 133.619 127.745 133.619C128.428 133.619 129.104 133.484 129.735 133.222C130.366 132.959 130.939 132.575 131.422 132.09C131.905 131.606 132.288 131.03 132.549 130.397C132.81 129.764 132.945 129.086 132.945 128.401C132.945 127.716 132.81 127.037 132.549 126.404C132.288 125.771 131.905 125.196 131.422 124.712C130.939 124.227 130.366 123.843 129.735 123.58C129.104 123.318 128.428 123.183 127.745 123.183C127.062 123.183 126.386 123.318 125.755 123.58C125.124 123.843 124.55 124.227 124.068 124.712C123.585 125.196 123.202 125.771 122.941 126.404C122.679 127.037 122.545 127.716 122.545 128.401Z" stroke="#E325DC" stroke-width="0.5"/>
</g>
<g filter="url(#filter11_d_819_15804)">
<path fill-rule="evenodd" clip-rule="evenodd" d="M124.748 128.401C124.748 128.796 124.825 129.187 124.976 129.552C125.126 129.917 125.347 130.249 125.626 130.528C125.904 130.807 126.234 131.029 126.598 131.18C126.962 131.331 127.351 131.409 127.745 131.409C128.138 131.409 128.528 131.331 128.892 131.18C129.255 131.029 129.586 130.807 129.864 130.528C130.142 130.249 130.363 129.917 130.514 129.552C130.664 129.187 130.742 128.796 130.742 128.401C130.742 128.006 130.664 127.615 130.514 127.25C130.363 126.885 130.142 126.553 129.864 126.274C129.586 125.995 129.255 125.773 128.892 125.622C128.528 125.471 128.138 125.393 127.745 125.393C127.351 125.393 126.962 125.471 126.598 125.622C126.234 125.773 125.904 125.995 125.626 126.274C125.347 126.553 125.126 126.885 124.976 127.25C124.825 127.615 124.748 128.006 124.748 128.401ZM123.172 130.302C122.923 129.699 122.795 129.053 122.795 128.401C122.795 127.749 122.923 127.103 123.172 126.5C123.42 125.897 123.785 125.349 124.245 124.888C124.704 124.427 125.25 124.061 125.851 123.811C126.451 123.562 127.095 123.433 127.745 123.433C128.395 123.433 129.039 123.562 129.639 123.811C130.24 124.061 130.785 124.427 131.245 124.888C131.705 125.349 132.069 125.897 132.318 126.5C132.567 127.103 132.695 127.749 132.695 128.401C132.695 129.053 132.567 129.699 132.318 130.302C132.069 130.905 131.705 131.453 131.245 131.914C130.785 132.375 130.24 132.741 129.639 132.991C129.039 133.24 128.395 133.369 127.745 133.369C127.095 133.369 126.451 133.24 125.851 132.991C125.25 132.741 124.704 132.375 124.245 131.914C123.785 131.453 123.42 130.905 123.172 130.302Z" fill="white"/>
<path d="M125.207 129.457C125.069 129.122 124.998 128.763 124.998 128.401C124.998 128.039 125.069 127.68 125.207 127.345C125.345 127.011 125.548 126.707 125.803 126.45C126.058 126.194 126.361 125.991 126.694 125.853C127.027 125.714 127.384 125.643 127.745 125.643C128.105 125.643 128.463 125.714 128.796 125.853C129.129 125.991 129.432 126.194 129.687 126.45C129.942 126.707 130.145 127.011 130.283 127.345C130.421 127.68 130.492 128.039 130.492 128.401C130.492 128.763 130.421 129.122 130.283 129.457C130.145 129.791 129.942 130.095 129.687 130.352C129.432 130.608 129.129 130.811 128.796 130.949C128.463 131.088 128.105 131.159 127.745 131.159C127.384 131.159 127.027 131.088 126.694 130.949L126.598 131.18L126.694 130.949C126.361 130.811 126.058 130.608 125.803 130.352C125.548 130.095 125.345 129.791 125.207 129.457ZM122.545 128.401C122.545 129.086 122.679 129.764 122.941 130.397C123.202 131.03 123.585 131.606 124.068 132.09C124.55 132.575 125.124 132.959 125.755 133.222C126.386 133.484 127.062 133.619 127.745 133.619C128.428 133.619 129.104 133.484 129.735 133.222C130.366 132.959 130.939 132.575 131.422 132.09C131.905 131.606 132.288 131.03 132.549 130.397C132.81 129.764 132.945 129.086 132.945 128.401C132.945 127.716 132.81 127.037 132.549 126.404C132.288 125.771 131.905 125.196 131.422 124.712C130.939 124.227 130.366 123.843 129.735 123.58C129.104 123.318 128.428 123.183 127.745 123.183C127.062 123.183 126.386 123.318 125.755 123.58C125.124 123.843 124.55 124.227 124.068 124.712C123.585 125.196 123.202 125.771 122.941 126.404C122.679 127.037 122.545 127.716 122.545 128.401Z" stroke="#E325DC" stroke-width="0.5"/>
</g>
<g filter="url(#filter12_d_819_15804)">
<path fill-rule="evenodd" clip-rule="evenodd" d="M2.39422 81.4553C2.39422 81.635 2.42948 81.8129 2.49799 81.9789C2.56649 82.1449 2.66689 82.2957 2.79348 82.4227C2.92008 82.5498 3.07036 82.6505 3.23572 82.7193C3.40111 82.788 3.57837 82.8234 3.75738 82.8234C3.9364 82.8234 4.11366 82.788 4.27904 82.7193C4.44441 82.6505 4.59469 82.5498 4.72128 82.4227C4.84787 82.2957 4.94828 82.1448 5.01678 81.9789C5.08528 81.8129 5.12054 81.635 5.12054 81.4553C5.12054 81.0925 4.97693 80.7445 4.72128 80.4879C4.46563 80.2314 4.11891 80.0872 3.75738 80.0872C3.39586 80.0872 3.04913 80.2314 2.79348 80.4879C2.53784 80.7445 2.39422 81.0925 2.39422 81.4553ZM0.693821 82.7289C0.527177 82.3251 0.441406 81.8924 0.441406 81.4553C0.441406 80.5727 0.790767 79.7262 1.41263 79.1021C2.0345 78.478 2.87793 78.1273 3.75738 78.1273C4.63683 78.1273 5.48027 78.478 6.10213 79.1021C6.724 79.7262 7.07336 80.5727 7.07336 81.4553C7.07336 81.8924 6.98759 82.3251 6.82094 82.7289C6.6543 83.1327 6.41005 83.4995 6.10213 83.8086C5.79421 84.1176 5.42866 84.3628 5.02635 84.53C4.62404 84.6972 4.19284 84.7833 3.75738 84.7833C3.32192 84.7833 2.89073 84.6972 2.48841 84.53C2.0861 84.3628 1.72055 84.1176 1.41263 83.8086C1.10472 83.4995 0.860464 83.1327 0.693821 82.7289Z" fill="white"/>
<path d="M2.24422 81.4553C2.24422 81.6546 2.28333 81.852 2.35933 82.0361C2.43533 82.2202 2.54673 82.3876 2.68723 82.5286C2.82772 82.6696 2.99454 82.7815 3.17814 82.8578C3.36177 82.9341 3.55859 82.9734 3.75738 82.9734C3.95617 82.9734 4.153 82.9341 4.33662 82.8578C4.52023 82.7815 4.68704 82.6696 4.82754 82.5286C4.96803 82.3876 5.07944 82.2202 5.15543 82.0361C5.23143 81.852 5.27054 81.6546 5.27054 81.4553C5.27054 81.0529 5.11125 80.6668 4.82754 80.3821C4.5438 80.0973 4.15886 79.9372 3.75738 79.9372C3.3559 79.9372 2.97096 80.0973 2.68723 80.3821C2.40351 80.6668 2.24422 81.0529 2.24422 81.4553ZM0.832476 82.6717C0.673327 82.2861 0.591406 81.8727 0.591406 81.4553C0.591406 80.6123 0.925095 79.8039 1.51889 79.2079C2.11267 78.612 2.91789 78.2773 3.75738 78.2773C4.59687 78.2773 5.4021 78.612 5.99587 79.2079C6.58967 79.8039 6.92336 80.6123 6.92336 81.4553C6.92336 81.8727 6.84144 82.2861 6.68229 82.6717C6.52314 83.0573 6.28989 83.4076 5.99587 83.7027C5.70186 83.9978 5.35284 84.2318 4.96877 84.3915C4.5847 84.5512 4.17307 84.6333 3.75738 84.6333C3.3417 84.6333 2.93007 84.5512 2.54599 84.3915C2.16192 84.2318 1.8129 83.9978 1.51889 83.7027C1.22488 83.4076 0.991624 83.0573 0.832476 82.6717Z" stroke="#E325DC" stroke-width="0.3"/>
</g>
<g filter="url(#filter13_d_819_15804)">
<path fill-rule="evenodd" clip-rule="evenodd" d="M2.39422 81.4553C2.39422 81.635 2.42948 81.8129 2.49799 81.9789C2.56649 82.1449 2.66689 82.2957 2.79348 82.4227C2.92008 82.5498 3.07036 82.6505 3.23572 82.7193C3.40111 82.788 3.57837 82.8234 3.75738 82.8234C3.9364 82.8234 4.11366 82.788 4.27904 82.7193C4.44441 82.6505 4.59469 82.5498 4.72128 82.4227C4.84787 82.2957 4.94828 82.1448 5.01678 81.9789C5.08528 81.8129 5.12054 81.635 5.12054 81.4553C5.12054 81.0925 4.97693 80.7445 4.72128 80.4879C4.46563 80.2314 4.11891 80.0872 3.75738 80.0872C3.39586 80.0872 3.04913 80.2314 2.79348 80.4879C2.53784 80.7445 2.39422 81.0925 2.39422 81.4553ZM0.693821 82.7289C0.527177 82.3251 0.441406 81.8924 0.441406 81.4553C0.441406 80.5727 0.790767 79.7262 1.41263 79.1021C2.0345 78.478 2.87793 78.1273 3.75738 78.1273C4.63683 78.1273 5.48027 78.478 6.10213 79.1021C6.724 79.7262 7.07336 80.5727 7.07336 81.4553C7.07336 81.8924 6.98759 82.3251 6.82094 82.7289C6.6543 83.1327 6.41005 83.4995 6.10213 83.8086C5.79421 84.1176 5.42866 84.3628 5.02635 84.53C4.62404 84.6972 4.19284 84.7833 3.75738 84.7833C3.32192 84.7833 2.89073 84.6972 2.48841 84.53C2.0861 84.3628 1.72055 84.1176 1.41263 83.8086C1.10472 83.4995 0.860464 83.1327 0.693821 82.7289Z" fill="white"/>
<path d="M2.24422 81.4553C2.24422 81.6546 2.28333 81.852 2.35933 82.0361C2.43533 82.2202 2.54673 82.3876 2.68723 82.5286C2.82772 82.6696 2.99454 82.7815 3.17814 82.8578C3.36177 82.9341 3.55859 82.9734 3.75738 82.9734C3.95617 82.9734 4.153 82.9341 4.33662 82.8578C4.52023 82.7815 4.68704 82.6696 4.82754 82.5286C4.96803 82.3876 5.07944 82.2202 5.15543 82.0361C5.23143 81.852 5.27054 81.6546 5.27054 81.4553C5.27054 81.0529 5.11125 80.6668 4.82754 80.3821C4.5438 80.0973 4.15886 79.9372 3.75738 79.9372C3.3559 79.9372 2.97096 80.0973 2.68723 80.3821C2.40351 80.6668 2.24422 81.0529 2.24422 81.4553ZM0.832476 82.6717C0.673327 82.2861 0.591406 81.8727 0.591406 81.4553C0.591406 80.6123 0.925095 79.8039 1.51889 79.2079C2.11267 78.612 2.91789 78.2773 3.75738 78.2773C4.59687 78.2773 5.4021 78.612 5.99587 79.2079C6.58967 79.8039 6.92336 80.6123 6.92336 81.4553C6.92336 81.8727 6.84144 82.2861 6.68229 82.6717C6.52314 83.0573 6.28989 83.4076 5.99587 83.7027C5.70186 83.9978 5.35284 84.2318 4.96877 84.3915C4.5847 84.5512 4.17307 84.6333 3.75738 84.6333C3.3417 84.6333 2.93007 84.5512 2.54599 84.3915C2.16192 84.2318 1.8129 83.9978 1.51889 83.7027C1.22488 83.4076 0.991624 83.0573 0.832476 82.6717Z" stroke="#E325DC" stroke-width="0.3"/>
</g>
<g filter="url(#filter14_d_819_15804)">
<path d="M120.464 6.34213C120.464 7.3636 121.296 8.19986 122.316 8.19986C123.336 8.19986 124.168 7.3636 124.168 6.34213V1.39032C124.168 0.368854 123.336 -0.467407 122.316 -0.467407C121.296 -0.467407 120.464 0.368854 120.464 1.39032V6.34213ZM120.464 19.622C120.464 20.6435 121.296 21.4797 122.316 21.4797C123.336 21.4797 124.168 20.6435 124.168 19.622V14.6702C124.168 13.6487 123.336 12.8124 122.316 12.8124C121.296 12.8124 120.464 13.6487 120.464 14.6702V19.622ZM113.233 12.3639H118.167C119.187 12.3639 120.019 11.5276 120.019 10.5062C120.019 9.48468 119.187 8.64842 118.167 8.64842H113.233C112.213 8.64842 111.381 9.48468 111.381 10.5062C111.381 11.5276 112.213 12.3639 113.233 12.3639ZM126.465 12.3639H131.399C132.419 12.3639 133.25 11.5276 133.25 10.5062C133.25 9.48468 132.419 8.64842 131.399 8.64842H126.465C125.445 8.64842 124.613 9.48468 124.613 10.5062C124.613 11.5276 125.445 12.3639 126.465 12.3639Z" fill="white" stroke="#E325DC" stroke-width="0.5"/>
<path d="M114.577 18.2711L114.577 18.2712L114.581 18.2756C114.946 18.6238 115.408 18.8109 115.891 18.8109C116.368 18.8109 116.852 18.6278 117.192 18.2688L120.682 14.7663C121.404 14.0417 121.404 12.871 120.682 12.1465C119.959 11.4214 118.791 11.4214 118.069 12.1465L114.577 15.6513C113.855 16.3759 113.855 17.5466 114.577 18.2711Z" fill="white" stroke="#E325DC" stroke-width="0.5"/>
<path d="M123.932 8.88197L123.932 8.88203L123.937 8.88645C124.302 9.23466 124.764 9.42175 125.247 9.42175C125.73 9.42175 126.191 9.23466 126.556 8.88645L126.556 8.88652L126.561 8.88156L130.037 5.37712C130.037 5.37706 130.037 5.37701 130.037 5.37696C130.759 4.65237 130.759 3.48182 130.037 2.75731C129.315 2.03223 128.147 2.03223 127.424 2.75731L123.932 6.26216C123.21 6.98673 123.21 8.1574 123.932 8.88197Z" fill="white" stroke="#E325DC" stroke-width="0.5"/>
<path d="M127.424 18.2711L127.424 18.2712L127.429 18.2756C127.794 18.6238 128.256 18.8109 128.739 18.8109C129.203 18.8109 129.684 18.6253 130.037 18.2711C130.759 17.5466 130.759 16.3759 130.037 15.6513L126.545 12.1465C125.823 11.4214 124.655 11.4214 123.932 12.1465C123.21 12.871 123.21 14.0417 123.932 14.7663L127.424 18.2711Z" fill="white" stroke="#E325DC" stroke-width="0.5"/>
<path d="M118.069 8.88197L118.069 8.88203L118.073 8.88645C118.439 9.23466 118.9 9.42175 119.383 9.42175C119.865 9.42175 120.33 9.23523 120.682 8.88197C121.404 8.1574 121.404 6.98673 120.682 6.26216L117.19 2.75731C116.467 2.03223 115.299 2.03223 114.577 2.75731C113.855 3.48188 113.855 4.65255 114.577 5.37712L118.069 8.88197Z" fill="white" stroke="#E325DC" stroke-width="0.5"/>
</g>
<g filter="url(#filter15_d_819_15804)">
<path d="M120.464 6.34213C120.464 7.3636 121.296 8.19986 122.316 8.19986C123.336 8.19986 124.168 7.3636 124.168 6.34213V1.39032C124.168 0.368854 123.336 -0.467407 122.316 -0.467407C121.296 -0.467407 120.464 0.368854 120.464 1.39032V6.34213ZM120.464 19.622C120.464 20.6435 121.296 21.4797 122.316 21.4797C123.336 21.4797 124.168 20.6435 124.168 19.622V14.6702C124.168 13.6487 123.336 12.8124 122.316 12.8124C121.296 12.8124 120.464 13.6487 120.464 14.6702V19.622ZM113.233 12.3639H118.167C119.187 12.3639 120.019 11.5276 120.019 10.5062C120.019 9.48468 119.187 8.64842 118.167 8.64842H113.233C112.213 8.64842 111.381 9.48468 111.381 10.5062C111.381 11.5276 112.213 12.3639 113.233 12.3639ZM126.465 12.3639H131.399C132.419 12.3639 133.25 11.5276 133.25 10.5062C133.25 9.48468 132.419 8.64842 131.399 8.64842H126.465C125.445 8.64842 124.613 9.48468 124.613 10.5062C124.613 11.5276 125.445 12.3639 126.465 12.3639Z" fill="white" stroke="#E325DC" stroke-width="0.5"/>
<path d="M114.577 18.2711L114.577 18.2712L114.581 18.2756C114.946 18.6238 115.408 18.8109 115.891 18.8109C116.368 18.8109 116.852 18.6278 117.192 18.2688L120.682 14.7663C121.404 14.0417 121.404 12.871 120.682 12.1465C119.959 11.4214 118.791 11.4214 118.069 12.1465L114.577 15.6513C113.855 16.3759 113.855 17.5466 114.577 18.2711Z" fill="white" stroke="#E325DC" stroke-width="0.5"/>
<path d="M123.932 8.88197L123.932 8.88203L123.937 8.88645C124.302 9.23466 124.764 9.42175 125.247 9.42175C125.73 9.42175 126.191 9.23466 126.556 8.88645L126.556 8.88652L126.561 8.88156L130.037 5.37712C130.037 5.37706 130.037 5.37701 130.037 5.37696C130.759 4.65237 130.759 3.48182 130.037 2.75731C129.315 2.03223 128.147 2.03223 127.424 2.75731L123.932 6.26216C123.21 6.98673 123.21 8.1574 123.932 8.88197Z" fill="white" stroke="#E325DC" stroke-width="0.5"/>
<path d="M127.424 18.2711L127.424 18.2712L127.429 18.2756C127.794 18.6238 128.256 18.8109 128.739 18.8109C129.203 18.8109 129.684 18.6253 130.037 18.2711C130.759 17.5466 130.759 16.3759 130.037 15.6513L126.545 12.1465C125.823 11.4214 124.655 11.4214 123.932 12.1465C123.21 12.871 123.21 14.0417 123.932 14.7663L127.424 18.2711Z" fill="white" stroke="#E325DC" stroke-width="0.5"/>
<path d="M118.069 8.88197L118.069 8.88203L118.073 8.88645C118.439 9.23466 118.9 9.42175 119.383 9.42175C119.865 9.42175 120.33 9.23523 120.682 8.88197C121.404 8.1574 121.404 6.98673 120.682 6.26216L117.19 2.75731C116.467 2.03223 115.299 2.03223 114.577 2.75731C113.855 3.48188 113.855 4.65255 114.577 5.37712L118.069 8.88197Z" fill="white" stroke="#E325DC" stroke-width="0.5"/>
</g>
</g>
<defs>
<filter id="filter0_d_819_15804" x="18.1445" y="32.5417" width="90.6699" height="74.7562" filterUnits="userSpaceOnUse" color-interpolation-filters="sRGB">
<feFlood flood-opacity="0" result="BackgroundImageFix"/>
<feColorMatrix in="SourceAlpha" type="matrix" values="0 0 0 0 0 0 0 0 0 0 0 0 0 0 0 0 0 0 127 0" result="hardAlpha"/>
<feOffset/>
<feGaussianBlur stdDeviation="1"/>
<feComposite in2="hardAlpha" operator="out"/>
<feColorMatrix type="matrix" values="0 0 0 0 0.890196 0 0 0 0 0.145098 0 0 0 0 0.862745 0 0 0 0.53 0"/>
<feBlend mode="normal" in2="BackgroundImageFix" result="effect1_dropShadow_819_15804"/>
<feBlend mode="normal" in="SourceGraphic" in2="effect1_dropShadow_819_15804" result="shape"/>
</filter>
<filter id="filter1_d_819_15804" x="18.1445" y="32.5417" width="90.6699" height="74.7562" filterUnits="userSpaceOnUse" color-interpolation-filters="sRGB">
<feFlood flood-opacity="0" result="BackgroundImageFix"/>
<feColorMatrix in="SourceAlpha" type="matrix" values="0 0 0 0 0 0 0 0 0 0 0 0 0 0 0 0 0 0 127 0" result="hardAlpha"/>
<feOffset/>
<feGaussianBlur stdDeviation="1"/>
<feComposite in2="hardAlpha" operator="out"/>
<feColorMatrix type="matrix" values="0 0 0 0 0.890196 0 0 0 0 0.145098 0 0 0 0 0.862745 0 0 0 0.53 0"/>
<feBlend mode="normal" in2="BackgroundImageFix" result="effect1_dropShadow_819_15804"/>
<feBlend mode="normal" in="SourceGraphic" in2="effect1_dropShadow_819_15804" result="shape"/>
</filter>
<filter id="filter2_d_819_15804" x="68.877" y="51.7542" width="48.8691" height="36.3475" filterUnits="userSpaceOnUse" color-interpolation-filters="sRGB">
<feFlood flood-opacity="0" result="BackgroundImageFix"/>
<feColorMatrix in="SourceAlpha" type="matrix" values="0 0 0 0 0 0 0 0 0 0 0 0 0 0 0 0 0 0 127 0" result="hardAlpha"/>
<feOffset/>
<feGaussianBlur stdDeviation="1"/>
<feComposite in2="hardAlpha" operator="out"/>
<feColorMatrix type="matrix" values="0 0 0 0 0.890196 0 0 0 0 0.145098 0 0 0 0 0.862745 0 0 0 0.53 0"/>
<feBlend mode="normal" in2="BackgroundImageFix" result="effect1_dropShadow_819_15804"/>
<feBlend mode="normal" in="SourceGraphic" in2="effect1_dropShadow_819_15804" result="shape"/>
</filter>
<filter id="filter3_d_819_15804" x="68.877" y="51.7542" width="48.8691" height="36.3475" filterUnits="userSpaceOnUse" color-interpolation-filters="sRGB">
<feFlood flood-opacity="0" result="BackgroundImageFix"/>
<feColorMatrix in="SourceAlpha" type="matrix" values="0 0 0 0 0 0 0 0 0 0 0 0 0 0 0 0 0 0 127 0" result="hardAlpha"/>
<feOffset/>
<feGaussianBlur stdDeviation="1"/>
<feComposite in2="hardAlpha" operator="out"/>
<feColorMatrix type="matrix" values="0 0 0 0 0.890196 0 0 0 0 0.145098 0 0 0 0 0.862745 0 0 0 0.53 0"/>
<feBlend mode="normal" in2="BackgroundImageFix" result="effect1_dropShadow_819_15804"/>
<feBlend mode="normal" in="SourceGraphic" in2="effect1_dropShadow_819_15804" result="shape"/>
</filter>
<filter id="filter4_d_819_15804" x="-2.71289" y="-1.14026" width="23.7676" height="23.8394" filterUnits="userSpaceOnUse" color-interpolation-filters="sRGB">
<feFlood flood-opacity="0" result="BackgroundImageFix"/>
<feColorMatrix in="SourceAlpha" type="matrix" values="0 0 0 0 0 0 0 0 0 0 0 0 0 0 0 0 0 0 127 0" result="hardAlpha"/>
<feOffset/>
<feGaussianBlur stdDeviation="1"/>
<feComposite in2="hardAlpha" operator="out"/>
<feColorMatrix type="matrix" values="0 0 0 0 0.890196 0 0 0 0 0.145098 0 0 0 0 0.862745 0 0 0 0.53 0"/>
<feBlend mode="normal" in2="BackgroundImageFix" result="effect1_dropShadow_819_15804"/>
<feBlend mode="normal" in="SourceGraphic" in2="effect1_dropShadow_819_15804" result="shape"/>
</filter>
<filter id="filter5_d_819_15804" x="-2.71289" y="-1.14026" width="23.7676" height="23.8394" filterUnits="userSpaceOnUse" color-interpolation-filters="sRGB">
<feFlood flood-opacity="0" result="BackgroundImageFix"/>
<feColorMatrix in="SourceAlpha" type="matrix" values="0 0 0 0 0 0 0 0 0 0 0 0 0 0 0 0 0 0 127 0" result="hardAlpha"/>
<feOffset/>
<feGaussianBlur stdDeviation="1"/>
<feComposite in2="hardAlpha" operator="out"/>
<feColorMatrix type="matrix" values="0 0 0 0 0.890196 0 0 0 0 0.145098 0 0 0 0 0.862745 0 0 0 0.53 0"/>
<feBlend mode="normal" in2="BackgroundImageFix" result="effect1_dropShadow_819_15804"/>
<feBlend mode="normal" in="SourceGraphic" in2="effect1_dropShadow_819_15804" result="shape"/>
</filter>
<filter id="filter6_d_819_15804" x="5.9707" y="118.652" width="8.9668" height="19.9969" filterUnits="userSpaceOnUse" color-interpolation-filters="sRGB">
<feFlood flood-opacity="0" result="BackgroundImageFix"/>
<feColorMatrix in="SourceAlpha" type="matrix" values="0 0 0 0 0 0 0 0 0 0 0 0 0 0 0 0 0 0 127 0" result="hardAlpha"/>
<feOffset/>
<feGaussianBlur stdDeviation="1"/>
<feComposite in2="hardAlpha" operator="out"/>
<feColorMatrix type="matrix" values="0 0 0 0 0.890196 0 0 0 0 0.145098 0 0 0 0 0.862745 0 0 0 0.53 0"/>
<feBlend mode="normal" in2="BackgroundImageFix" result="effect1_dropShadow_819_15804"/>
<feBlend mode="normal" in="SourceGraphic" in2="effect1_dropShadow_819_15804" result="shape"/>
</filter>
<filter id="filter7_d_819_15804" x="5.9707" y="118.652" width="8.9668" height="19.9969" filterUnits="userSpaceOnUse" color-interpolation-filters="sRGB">
<feFlood flood-opacity="0" result="BackgroundImageFix"/>
<feColorMatrix in="SourceAlpha" type="matrix" values="0 0 0 0 0 0 0 0 0 0 0 0 0 0 0 0 0 0 127 0" result="hardAlpha"/>
<feOffset/>
<feGaussianBlur stdDeviation="1"/>
<feComposite in2="hardAlpha" operator="out"/>
<feColorMatrix type="matrix" values="0 0 0 0 0.890196 0 0 0 0 0.145098 0 0 0 0 0.862745 0 0 0 0.53 0"/>
<feBlend mode="normal" in2="BackgroundImageFix" result="effect1_dropShadow_819_15804"/>
<feBlend mode="normal" in="SourceGraphic" in2="effect1_dropShadow_819_15804" result="shape"/>
</filter>
<filter id="filter8_d_819_15804" x="0.474609" y="124.15" width="19.9395" height="8.98438" filterUnits="userSpaceOnUse" color-interpolation-filters="sRGB">
<feFlood flood-opacity="0" result="BackgroundImageFix"/>
<feColorMatrix in="SourceAlpha" type="matrix" values="0 0 0 0 0 0 0 0 0 0 0 0 0 0 0 0 0 0 127 0" result="hardAlpha"/>
<feOffset/>
<feGaussianBlur stdDeviation="1"/>
<feComposite in2="hardAlpha" operator="out"/>
<feColorMatrix type="matrix" values="0 0 0 0 0.890196 0 0 0 0 0.145098 0 0 0 0 0.862745 0 0 0 0.53 0"/>
<feBlend mode="normal" in2="BackgroundImageFix" result="effect1_dropShadow_819_15804"/>
<feBlend mode="normal" in="SourceGraphic" in2="effect1_dropShadow_819_15804" result="shape"/>
</filter>
<filter id="filter9_d_819_15804" x="0.474609" y="124.15" width="19.9395" height="8.98438" filterUnits="userSpaceOnUse" color-interpolation-filters="sRGB">
<feFlood flood-opacity="0" result="BackgroundImageFix"/>
<feColorMatrix in="SourceAlpha" type="matrix" values="0 0 0 0 0 0 0 0 0 0 0 0 0 0 0 0 0 0 127 0" result="hardAlpha"/>
<feOffset/>
<feGaussianBlur stdDeviation="1"/>
<feComposite in2="hardAlpha" operator="out"/>
<feColorMatrix type="matrix" values="0 0 0 0 0.890196 0 0 0 0 0.145098 0 0 0 0 0.862745 0 0 0 0.53 0"/>
<feBlend mode="normal" in2="BackgroundImageFix" result="effect1_dropShadow_819_15804"/>
<feBlend mode="normal" in="SourceGraphic" in2="effect1_dropShadow_819_15804" result="shape"/>
</filter>
<filter id="filter10_d_819_15804" x="120.295" y="120.933" width="14.9004" height="14.9358" filterUnits="userSpaceOnUse" color-interpolation-filters="sRGB">
<feFlood flood-opacity="0" result="BackgroundImageFix"/>
<feColorMatrix in="SourceAlpha" type="matrix" values="0 0 0 0 0 0 0 0 0 0 0 0 0 0 0 0 0 0 127 0" result="hardAlpha"/>
<feOffset/>
<feGaussianBlur stdDeviation="1"/>
<feComposite in2="hardAlpha" operator="out"/>
<feColorMatrix type="matrix" values="0 0 0 0 0.890196 0 0 0 0 0.145098 0 0 0 0 0.862745 0 0 0 0.53 0"/>
<feBlend mode="normal" in2="BackgroundImageFix" result="effect1_dropShadow_819_15804"/>
<feBlend mode="normal" in="SourceGraphic" in2="effect1_dropShadow_819_15804" result="shape"/>
</filter>
<filter id="filter11_d_819_15804" x="120.295" y="120.933" width="14.9004" height="14.9358" filterUnits="userSpaceOnUse" color-interpolation-filters="sRGB">
<feFlood flood-opacity="0" result="BackgroundImageFix"/>
<feColorMatrix in="SourceAlpha" type="matrix" values="0 0 0 0 0 0 0 0 0 0 0 0 0 0 0 0 0 0 127 0" result="hardAlpha"/>
<feOffset/>
<feGaussianBlur stdDeviation="1"/>
<feComposite in2="hardAlpha" operator="out"/>
<feColorMatrix type="matrix" values="0 0 0 0 0.890196 0 0 0 0 0.145098 0 0 0 0 0.862745 0 0 0 0.53 0"/>
<feBlend mode="normal" in2="BackgroundImageFix" result="effect1_dropShadow_819_15804"/>
<feBlend mode="normal" in="SourceGraphic" in2="effect1_dropShadow_819_15804" result="shape"/>
</filter>
<filter id="filter12_d_819_15804" x="-1.55859" y="76.1273" width="10.6328" height="10.656" filterUnits="userSpaceOnUse" color-interpolation-filters="sRGB">
<feFlood flood-opacity="0" result="BackgroundImageFix"/>
<feColorMatrix in="SourceAlpha" type="matrix" values="0 0 0 0 0 0 0 0 0 0 0 0 0 0 0 0 0 0 127 0" result="hardAlpha"/>
<feOffset/>
<feGaussianBlur stdDeviation="1"/>
<feComposite in2="hardAlpha" operator="out"/>
<feColorMatrix type="matrix" values="0 0 0 0 0.890196 0 0 0 0 0.145098 0 0 0 0 0.862745 0 0 0 0.53 0"/>
<feBlend mode="normal" in2="BackgroundImageFix" result="effect1_dropShadow_819_15804"/>
<feBlend mode="normal" in="SourceGraphic" in2="effect1_dropShadow_819_15804" result="shape"/>
</filter>
<filter id="filter13_d_819_15804" x="-1.55859" y="76.1273" width="10.6328" height="10.656" filterUnits="userSpaceOnUse" color-interpolation-filters="sRGB">
<feFlood flood-opacity="0" result="BackgroundImageFix"/>
<feColorMatrix in="SourceAlpha" type="matrix" values="0 0 0 0 0 0 0 0 0 0 0 0 0 0 0 0 0 0 127 0" result="hardAlpha"/>
<feOffset/>
<feGaussianBlur stdDeviation="1"/>
<feComposite in2="hardAlpha" operator="out"/>
<feColorMatrix type="matrix" values="0 0 0 0 0.890196 0 0 0 0 0.145098 0 0 0 0 0.862745 0 0 0 0.53 0"/>
<feBlend mode="normal" in2="BackgroundImageFix" result="effect1_dropShadow_819_15804"/>
<feBlend mode="normal" in="SourceGraphic" in2="effect1_dropShadow_819_15804" result="shape"/>
</filter>
<filter id="filter14_d_819_15804" x="109.131" y="-2.71741" width="26.3691" height="26.4471" filterUnits="userSpaceOnUse" color-interpolation-filters="sRGB">
<feFlood flood-opacity="0" result="BackgroundImageFix"/>
<feColorMatrix in="SourceAlpha" type="matrix" values="0 0 0 0 0 0 0 0 0 0 0 0 0 0 0 0 0 0 127 0" result="hardAlpha"/>
<feOffset/>
<feGaussianBlur stdDeviation="1"/>
<feComposite in2="hardAlpha" operator="out"/>
<feColorMatrix type="matrix" values="0 0 0 0 0.890196 0 0 0 0 0.145098 0 0 0 0 0.862745 0 0 0 0.53 0"/>
<feBlend mode="normal" in2="BackgroundImageFix" result="effect1_dropShadow_819_15804"/>
<feBlend mode="normal" in="SourceGraphic" in2="effect1_dropShadow_819_15804" result="shape"/>
</filter>
<filter id="filter15_d_819_15804" x="109.131" y="-2.71741" width="26.3691" height="26.4471" filterUnits="userSpaceOnUse" color-interpolation-filters="sRGB">
<feFlood flood-opacity="0" result="BackgroundImageFix"/>
<feColorMatrix in="SourceAlpha" type="matrix" values="0 0 0 0 0 0 0 0 0 0 0 0 0 0 0 0 0 0 127 0" result="hardAlpha"/>
<feOffset/>
<feGaussianBlur stdDeviation="1"/>
<feComposite in2="hardAlpha" operator="out"/>
<feColorMatrix type="matrix" values="0 0 0 0 0.890196 0 0 0 0 0.145098 0 0 0 0 0.862745 0 0 0 0.53 0"/>
<feBlend mode="normal" in2="BackgroundImageFix" result="effect1_dropShadow_819_15804"/>
<feBlend mode="normal" in="SourceGraphic" in2="effect1_dropShadow_819_15804" result="shape"/>
</filter>
<clipPath id="clip0_819_15804">
<rect width="136" height="136" fill="white"/>
</clipPath>
</defs>
</svg>
