<svg width="16" height="16" viewBox="0 0 16 16" fill="none" xmlns="http://www.w3.org/2000/svg">
<g clip-path="url(#clip0_819_15774)">
<path d="M8 16C3.6 16 0 12.4 0 8C0 3.6 3.6 0 8 0C12.4 0 16 3.6 16 8C16 12.4 12.4 16 8 16ZM8 1C4.1 1 1 4.1 1 8C1 11.9 4.1 15 8 15C11.9 15 15 11.9 15 8C15 4.1 11.9 1 8 1Z" fill="#C2C2C2"/>
<path d="M9.60087 4.90002C10.0009 5.30002 10.2009 5.70002 10.2009 6.30002C10.2009 6.80002 10.1009 7.20002 9.80087 7.50002C9.80087 7.70002 9.50086 7.90002 9.00086 8.30002C8.80086 8.50002 8.70087 8.70002 8.60087 8.80002C8.60087 8.90002 8.50086 9.00002 8.50086 9.20002C8.50086 9.50002 8.20087 9.70002 8.00086 9.70002C7.70087 9.70002 7.40087 9.40002 7.50087 9.10002C7.50087 8.90002 7.60087 8.70002 7.60087 8.60002C7.70087 8.30002 8.10086 7.90002 8.70086 7.40002L8.90086 7.20002C9.10086 7.00002 9.20086 6.70002 9.20086 6.50002C9.20086 6.20002 9.10086 5.90002 8.90086 5.70002C8.70086 5.40002 8.40087 5.30002 8.00086 5.30002C7.50086 5.30002 7.20087 5.40002 7.00087 5.70002C6.90087 5.80002 6.80087 6.00002 6.80087 6.30002C6.80087 6.60002 6.50087 6.80002 6.30087 6.80002C6.00087 6.80002 5.70087 6.50002 5.80087 6.10002C5.90087 5.60002 6.10087 5.30002 6.30087 5.00002C6.70087 4.60002 7.30086 4.40002 8.00086 4.40002C8.70087 4.40002 9.30087 4.50002 9.60087 4.90002ZM8.40086 10.4C8.50086 10.5 8.60087 10.7 8.60087 10.9C8.60087 11.1 8.50086 11.3 8.40086 11.4C8.20086 11.5 8.10087 11.6 7.90087 11.6C7.70087 11.6 7.50087 11.5 7.40087 11.4C7.30087 11.3 7.20086 11.1 7.20086 10.9C7.20086 10.7 7.30087 10.5 7.40087 10.4C7.50087 10.3 7.70087 10.2 7.90087 10.2C8.10087 10.2 8.30086 10.3 8.40086 10.4Z" fill="#C2C2C2"/>
</g>
<defs>
<clipPath id="clip0_819_15774">
<rect width="16" height="16" fill="white"/>
</clipPath>
</defs>
</svg>
