<svg width="138" height="138" viewBox="0 0 138 138" fill="none" xmlns="http://www.w3.org/2000/svg">
<g clip-path="url(#clip0_819_15892)">
<g filter="url(#filter0_d_819_15892)">
<path d="M93.906 106.846H37.4857C28.7081 106.846 21.5723 99.6847 21.5723 90.8753V51.0208C21.5723 42.2114 28.7081 35.0497 37.4857 35.0497H93.906C101.026 35.0497 107.332 39.8622 109.251 46.7303C109.917 49.1611 108.503 51.6734 106.081 52.3585C103.659 53.0274 101.156 51.6081 100.473 49.1774C99.6602 46.2409 96.9619 44.1854 93.906 44.1854H37.4857C33.7308 44.1854 30.6749 47.2524 30.6749 51.0208V90.8753C30.6749 94.6438 33.7308 97.7107 37.4857 97.7107H93.906C97.0757 97.7107 99.8065 95.5573 100.538 92.4577C101.123 90.0106 103.578 88.4935 106.016 89.0644C108.454 89.6517 109.966 92.1151 109.397 94.5622C108.584 98.0044 106.617 101.12 103.854 103.339C101.042 105.607 97.5146 106.846 93.906 106.846Z" fill="#E3E3E3"/>
<path d="M103.384 102.754L103.383 102.755C100.705 104.915 97.3439 106.096 93.906 106.096H37.4857C29.1249 106.096 22.3223 99.273 22.3223 90.8753V51.0208C22.3223 42.6231 29.1249 35.7997 37.4857 35.7997H93.906C100.686 35.7997 106.699 40.3853 108.528 46.9306C109.084 48.9639 107.901 51.0626 105.879 51.6362C103.859 52.1929 101.768 51.0105 101.195 48.9757C100.292 45.715 97.2984 43.4354 93.906 43.4354H37.4857C33.3141 43.4354 29.9249 46.8407 29.9249 51.0208V90.8753C29.9249 95.0554 33.3141 98.4607 37.4857 98.4607H93.906C97.4232 98.4607 100.456 96.0686 101.268 92.6302C101.758 90.5848 103.809 89.3193 105.843 89.7942C107.876 90.2853 109.142 92.344 108.667 94.3914C107.892 97.6702 106.017 100.64 103.384 102.754Z" stroke="white" stroke-width="1.5"/>
</g>
<g filter="url(#filter1_d_819_15892)">
<path d="M93.906 106.846H37.4857C28.7081 106.846 21.5723 99.6847 21.5723 90.8753V51.0208C21.5723 42.2114 28.7081 35.0497 37.4857 35.0497H93.906C101.026 35.0497 107.332 39.8622 109.251 46.7303C109.917 49.1611 108.503 51.6734 106.081 52.3585C103.659 53.0274 101.156 51.6081 100.473 49.1774C99.6602 46.2409 96.9619 44.1854 93.906 44.1854H37.4857C33.7308 44.1854 30.6749 47.2524 30.6749 51.0208V90.8753C30.6749 94.6438 33.7308 97.7107 37.4857 97.7107H93.906C97.0757 97.7107 99.8065 95.5573 100.538 92.4577C101.123 90.0106 103.578 88.4935 106.016 89.0644C108.454 89.6517 109.966 92.1151 109.397 94.5622C108.584 98.0044 106.617 101.12 103.854 103.339C101.042 105.607 97.5146 106.846 93.906 106.846Z" fill="#E3E3E3"/>
<path d="M103.384 102.754L103.383 102.755C100.705 104.915 97.3439 106.096 93.906 106.096H37.4857C29.1249 106.096 22.3223 99.273 22.3223 90.8753V51.0208C22.3223 42.6231 29.1249 35.7997 37.4857 35.7997H93.906C100.686 35.7997 106.699 40.3853 108.528 46.9306C109.084 48.9639 107.901 51.0626 105.879 51.6362C103.859 52.1929 101.768 51.0105 101.195 48.9757C100.292 45.715 97.2984 43.4354 93.906 43.4354H37.4857C33.3141 43.4354 29.9249 46.8407 29.9249 51.0208V90.8753C29.9249 95.0554 33.3141 98.4607 37.4857 98.4607H93.906C97.4232 98.4607 100.456 96.0686 101.268 92.6302C101.758 90.5848 103.809 89.3193 105.843 89.7942C107.876 90.2853 109.142 92.344 108.667 94.3914C107.892 97.6702 106.017 100.64 103.384 102.754Z" stroke="white" stroke-width="1.5"/>
</g>
<g filter="url(#filter2_d_819_15892)">
<path d="M102.228 87.3678H89.4031C80.3817 87.3678 73.0508 80.0103 73.0508 70.9562C73.0508 61.902 80.3817 54.5446 89.4031 54.5446H102.228C111.25 54.5446 118.58 61.902 118.58 70.9562C118.58 79.994 111.233 87.3678 102.228 87.3678ZM89.4031 63.6639C85.4044 63.6639 82.1535 66.9267 82.1535 70.9399C82.1535 74.953 85.4044 78.2158 89.4031 78.2158H102.228C106.227 78.2158 109.478 74.953 109.478 70.9399C109.478 66.9267 106.227 63.6639 102.228 63.6639H89.4031Z" fill="#E3E3E3"/>
<path d="M102.228 86.6178H89.4031C80.7985 86.6178 73.8008 79.5986 73.8008 70.9562C73.8008 62.3137 80.7985 55.2946 89.4031 55.2946H102.228C110.833 55.2946 117.83 62.3137 117.83 70.9562C117.83 79.5823 110.816 86.6178 102.228 86.6178ZM89.4031 62.9139C84.9876 62.9139 81.4035 66.515 81.4035 70.9399C81.4035 75.3647 84.9876 78.9658 89.4031 78.9658H102.228C106.644 78.9658 110.228 75.3647 110.228 70.9399C110.228 66.515 106.644 62.9139 102.228 62.9139H89.4031Z" stroke="white" stroke-width="1.5"/>
</g>
<path d="M102.228 86.6178H89.4031C80.7985 86.6178 73.8008 79.5986 73.8008 70.9562C73.8008 62.3137 80.7985 55.2946 89.4031 55.2946H102.228C110.833 55.2946 117.83 62.3137 117.83 70.9562C117.83 79.5823 110.816 86.6178 102.228 86.6178ZM89.4031 62.9139C84.9876 62.9139 81.4035 66.515 81.4035 70.9399C81.4035 75.3647 84.9876 78.9658 89.4031 78.9658H102.228C106.644 78.9658 110.228 75.3647 110.228 70.9399C110.228 66.515 106.644 62.9139 102.228 62.9139H89.4031Z" fill="#E3E3E3" stroke="white" stroke-width="1.5"/>
<path d="M90.8184 71.0536C90.8184 71.0707 90.8251 71.0872 90.8372 71.0993C90.8493 71.1115 90.8657 71.1183 90.8828 71.1183C90.8999 71.1183 90.9163 71.1115 90.9284 71.0993C90.9405 71.0872 90.9473 71.0707 90.9473 71.0536C90.9473 71.0364 90.9405 71.02 90.9284 71.0078C90.9163 70.9957 90.8999 70.9889 90.8828 70.9889C90.8657 70.9889 90.8493 70.9957 90.8372 71.0078C90.8251 71.02 90.8184 71.0364 90.8184 71.0536Z" fill="white"/>
<path d="M86.0156 71.0541C86.0156 73.7526 88.1911 75.9372 90.882 75.9372C93.5729 75.9372 95.7483 73.7526 95.7483 71.0541C95.7483 68.3557 93.5729 66.171 90.882 66.171C88.1911 66.171 86.0156 68.3557 86.0156 71.0541ZM86.6457 71.0541C86.6457 68.7117 88.5502 66.8015 90.882 66.8015C93.2138 66.8015 95.1183 68.7117 95.1183 71.0541C95.1183 73.3966 93.2138 75.3067 90.882 75.3067C88.5502 75.3067 86.6457 73.3966 86.6457 71.0541Z" fill="white" stroke="white" stroke-width="0.5"/>
<g filter="url(#filter3_d_819_15892)">
<path d="M10.4374 7.39793C12.388 7.39793 13.9647 8.98036 13.9647 10.938C13.9647 12.8957 12.388 14.4781 10.4374 14.4781C8.48683 14.4781 6.91012 12.8957 6.91012 10.938C6.91012 8.98036 8.48683 7.39793 10.4374 7.39793ZM10.4374 0.872437C4.91078 0.872437 0.408203 5.39134 0.408203 10.938C0.408203 16.4847 4.91078 21.0036 10.4374 21.0036C15.964 21.0036 20.4666 16.4847 20.4666 10.938C20.4666 5.39134 15.964 0.872437 10.4374 0.872437Z" fill="#E3E3E3"/>
<path d="M14.4647 10.938C14.4647 8.70593 12.6658 6.89793 10.4374 6.89793C8.20898 6.89793 6.41012 8.70593 6.41012 10.938C6.41012 13.1701 8.20898 14.9781 10.4374 14.9781C12.6658 14.9781 14.4647 13.1701 14.4647 10.938ZM0.908203 10.938C0.908203 5.66577 5.18862 1.37244 10.4374 1.37244C15.6862 1.37244 19.9666 5.66577 19.9666 10.938C19.9666 16.2102 15.6862 20.5036 10.4374 20.5036C5.18862 20.5036 0.908203 16.2102 0.908203 10.938Z" stroke="white"/>
</g>
<path d="M14.4647 10.938C14.4647 8.70593 12.6658 6.89793 10.4374 6.89793C8.20898 6.89793 6.41012 8.70593 6.41012 10.938C6.41012 13.1701 8.20898 14.9781 10.4374 14.9781C12.6658 14.9781 14.4647 13.1701 14.4647 10.938ZM0.908203 10.938C0.908203 5.66577 5.18862 1.37244 10.4374 1.37244C15.6862 1.37244 19.9666 5.66577 19.9666 10.938C19.9666 16.2102 15.6862 20.5036 10.4374 20.5036C5.18862 20.5036 0.908203 16.2102 0.908203 10.938Z" fill="#E3E3E3" stroke="white"/>
<path d="M13.7454 136.239L13.7454 136.239C13.7315 137.386 12.7978 138.308 11.6572 138.308H11.6268C10.4744 138.293 9.55516 137.345 9.5689 136.183C9.5689 136.183 9.56891 136.183 9.56891 136.183L9.73145 124.845L9.73145 124.845C9.74539 123.698 10.6791 122.776 11.8197 122.776H11.85C13.0024 122.791 13.9216 123.739 13.9079 124.901C13.9079 124.901 13.9079 124.901 13.9079 124.902L13.7454 136.239Z" fill="#E3E3E3" stroke="white" stroke-width="0.7"/>
<path d="M13.7454 136.239L13.7454 136.239C13.7315 137.386 12.7978 138.308 11.6572 138.308H11.6268C10.4744 138.293 9.55516 137.345 9.5689 136.183C9.5689 136.183 9.56891 136.183 9.56891 136.183L9.73145 124.845L9.73145 124.845C9.74539 123.698 10.6791 122.776 11.8197 122.776H11.85C13.0024 122.791 13.9216 123.739 13.9079 124.901C13.9079 124.901 13.9079 124.901 13.9079 124.902L13.7454 136.239Z" fill="#E3E3E3" stroke="white" stroke-width="0.7"/>
<path d="M6.05334 132.549L6.05257 132.549C4.91303 132.536 3.99258 131.6 3.99258 130.452V130.422C4.00759 129.262 4.9537 128.342 6.10868 128.355C6.10881 128.355 6.10894 128.355 6.10907 128.355L17.4036 128.518C18.5626 128.547 19.4661 129.485 19.4661 130.616V130.646C19.4511 131.806 18.5049 132.726 17.35 132.713C17.3498 132.713 17.3497 132.713 17.3496 132.713L6.05334 132.549Z" fill="#E3E3E3" stroke="white" stroke-width="0.7"/>
<path d="M6.05334 132.549L6.05257 132.549C4.91303 132.536 3.99258 131.6 3.99258 130.452V130.422C4.00759 129.262 4.9537 128.342 6.10868 128.355C6.10881 128.355 6.10894 128.355 6.10907 128.355L17.4036 128.518C18.5626 128.547 19.4661 129.485 19.4661 130.616V130.646C19.4511 131.806 18.5049 132.726 17.35 132.713C17.3498 132.713 17.3497 132.713 17.3496 132.713L6.05334 132.549Z" fill="#E3E3E3" stroke="white" stroke-width="0.7"/>
<path d="M128.177 131.362C128.036 131.022 127.964 130.657 127.964 130.289C127.964 129.921 128.036 129.557 128.177 129.217C128.317 128.877 128.523 128.568 128.782 128.307C129.041 128.047 129.349 127.841 129.687 127.7C130.026 127.559 130.389 127.487 130.755 127.487C131.122 127.487 131.484 127.559 131.823 127.7C132.162 127.841 132.469 128.047 132.728 128.307C132.988 128.568 133.193 128.877 133.334 129.217C133.474 129.557 133.546 129.921 133.546 130.289C133.546 130.657 133.474 131.022 133.334 131.362C133.193 131.702 132.988 132.011 132.728 132.271C132.469 132.531 132.162 132.738 131.823 132.878C131.484 133.019 131.122 133.091 130.755 133.091C130.389 133.091 130.026 133.019 129.687 132.878C129.349 132.738 129.041 132.531 128.782 132.271C128.523 132.011 128.317 131.702 128.177 131.362ZM125.482 130.289C125.482 130.984 125.619 131.672 125.884 132.314C126.149 132.956 126.537 133.539 127.026 134.03C127.516 134.522 128.097 134.911 128.737 135.177C129.377 135.443 130.063 135.58 130.755 135.58C131.448 135.58 132.133 135.443 132.773 135.177C133.413 134.911 133.994 134.522 134.484 134.03C134.973 133.539 135.362 132.956 135.627 132.314C135.892 131.672 136.028 130.984 136.028 130.289C136.028 129.595 135.892 128.907 135.627 128.265C135.362 127.623 134.973 127.04 134.484 126.548C133.994 126.057 133.413 125.667 132.773 125.401C132.133 125.135 131.448 124.998 130.755 124.998C130.063 124.998 129.377 125.135 128.737 125.401C128.097 125.667 127.516 126.057 127.026 126.548C126.537 127.04 126.149 127.623 125.884 128.265C125.619 128.907 125.482 129.595 125.482 130.289Z" fill="#E3E3E3" stroke="white" stroke-width="0.5"/>
<path d="M128.177 131.362C128.036 131.022 127.964 130.657 127.964 130.289C127.964 129.921 128.036 129.557 128.177 129.217C128.317 128.877 128.523 128.568 128.782 128.307C129.041 128.047 129.349 127.841 129.687 127.7C130.026 127.559 130.389 127.487 130.755 127.487C131.122 127.487 131.484 127.559 131.823 127.7C132.162 127.841 132.469 128.047 132.728 128.307C132.988 128.568 133.193 128.877 133.334 129.217C133.474 129.557 133.546 129.921 133.546 130.289C133.546 130.657 133.474 131.022 133.334 131.362C133.193 131.702 132.988 132.011 132.728 132.271C132.469 132.531 132.162 132.738 131.823 132.878C131.484 133.019 131.122 133.091 130.755 133.091C130.389 133.091 130.026 133.019 129.687 132.878C129.349 132.738 129.041 132.531 128.782 132.271C128.523 132.011 128.317 131.702 128.177 131.362ZM125.482 130.289C125.482 130.984 125.619 131.672 125.884 132.314C126.149 132.956 126.537 133.539 127.026 134.03C127.516 134.522 128.097 134.911 128.737 135.177C129.377 135.443 130.063 135.58 130.755 135.58C131.448 135.58 132.133 135.443 132.773 135.177C133.413 134.911 133.994 134.522 134.484 134.03C134.973 133.539 135.362 132.956 135.627 132.314C135.892 131.672 136.028 130.984 136.028 130.289C136.028 129.595 135.892 128.907 135.627 128.265C135.362 127.623 134.973 127.04 134.484 126.548C133.994 126.057 133.413 125.667 132.773 125.401C132.133 125.135 131.448 124.998 130.755 124.998C130.063 124.998 129.377 125.135 128.737 125.401C128.097 125.667 127.516 126.057 127.026 126.548C126.537 127.04 126.149 127.623 125.884 128.265C125.619 128.907 125.482 129.595 125.482 130.289Z" fill="#E3E3E3" stroke="white" stroke-width="0.5"/>
<path d="M3.40966 82.6532C3.40966 82.8551 3.44929 83.0551 3.5263 83.2417C3.6033 83.4282 3.71618 83.5978 3.85853 83.7407C4.00089 83.8836 4.16992 83.9969 4.35596 84.0743C4.54201 84.1516 4.74144 84.1914 4.94287 84.1914C5.14429 84.1914 5.34372 84.1516 5.52978 84.0743C5.71581 83.9969 5.88484 83.8836 6.0272 83.7407C6.16955 83.5978 6.28243 83.4282 6.35944 83.2417C6.43644 83.0551 6.47607 82.8551 6.47607 82.6532C6.47607 82.2454 6.31467 81.8542 6.0272 81.5657C5.7397 81.2772 5.34966 81.115 4.94287 81.115C4.53607 81.115 4.14603 81.2772 3.85853 81.5657C3.57106 81.8542 3.40966 82.2454 3.40966 82.6532ZM1.97291 83.8883C1.81131 83.4967 1.72813 83.077 1.72813 82.6532C1.72813 81.7972 2.06695 80.9763 2.66989 80.3712C3.27282 79.7661 4.09044 79.4262 4.94287 79.4262C5.79529 79.4262 6.61291 79.7661 7.21584 80.3712C7.81878 80.9763 8.15761 81.7972 8.15761 82.6532C8.15761 83.077 8.07442 83.4967 7.91282 83.8883C7.75123 84.2798 7.51438 84.6355 7.21584 84.9352C6.9173 85.2348 6.56291 85.4724 6.17292 85.6346C5.78293 85.7967 5.36496 85.8801 4.94287 85.8801C4.52078 85.8801 4.10281 85.7967 3.71282 85.6346C3.32283 85.4724 2.96843 85.2348 2.66989 84.9352C2.37135 84.6355 2.13451 84.2798 1.97291 83.8883Z" fill="#E3E3E3" stroke="white" stroke-width="0.3"/>
<path d="M3.40966 82.6532C3.40966 82.8551 3.44929 83.0551 3.5263 83.2417C3.6033 83.4282 3.71618 83.5978 3.85853 83.7407C4.00089 83.8836 4.16992 83.9969 4.35596 84.0743C4.54201 84.1516 4.74144 84.1914 4.94287 84.1914C5.14429 84.1914 5.34372 84.1516 5.52978 84.0743C5.71581 83.9969 5.88484 83.8836 6.0272 83.7407C6.16955 83.5978 6.28243 83.4282 6.35944 83.2417C6.43644 83.0551 6.47607 82.8551 6.47607 82.6532C6.47607 82.2454 6.31467 81.8542 6.0272 81.5657C5.7397 81.2772 5.34966 81.115 4.94287 81.115C4.53607 81.115 4.14603 81.2772 3.85853 81.5657C3.57106 81.8542 3.40966 82.2454 3.40966 82.6532ZM1.97291 83.8883C1.81131 83.4967 1.72813 83.077 1.72813 82.6532C1.72813 81.7972 2.06695 80.9763 2.66989 80.3712C3.27282 79.7661 4.09044 79.4262 4.94287 79.4262C5.79529 79.4262 6.61291 79.7661 7.21584 80.3712C7.81878 80.9763 8.15761 81.7972 8.15761 82.6532C8.15761 83.077 8.07442 83.4967 7.91282 83.8883C7.75123 84.2798 7.51438 84.6355 7.21584 84.9352C6.9173 85.2348 6.56291 85.4724 6.17292 85.6346C5.78293 85.7967 5.36496 85.8801 4.94287 85.8801C4.52078 85.8801 4.10281 85.7967 3.71282 85.6346C3.32283 85.4724 2.96843 85.2348 2.66989 84.9352C2.37135 84.6355 2.13451 84.2798 1.97291 83.8883Z" fill="#E3E3E3" stroke="white" stroke-width="0.3"/>
<path d="M125.244 1.41079V6.43542V1.41079ZM125.244 8.0668C124.35 8.0668 123.619 7.33268 123.619 6.43542V1.41079C123.619 0.513537 124.35 -0.220581 125.244 -0.220581C126.138 -0.220581 126.87 0.513537 126.87 1.41079V6.43542C126.87 7.33268 126.138 8.0668 125.244 8.0668ZM125.244 14.8859V19.9106V14.8859ZM125.244 21.5419C124.35 21.5419 123.619 20.8078 123.619 19.9106V14.8859C123.619 13.9887 124.35 13.2546 125.244 13.2546C126.138 13.2546 126.87 13.9887 126.87 14.8859V19.9106C126.87 20.8078 126.138 21.5419 125.244 21.5419ZM116.028 10.6607H121.034H116.028ZM121.034 12.2921H116.028C115.134 12.2921 114.402 11.5579 114.402 10.6607C114.402 9.76342 115.134 9.02931 116.028 9.02931H121.034C121.928 9.02931 122.66 9.76342 122.66 10.6607C122.66 11.5579 121.928 12.2921 121.034 12.2921ZM129.454 10.6607H134.461H129.454ZM134.461 12.2921H129.454C128.56 12.2921 127.829 11.5579 127.829 10.6607C127.829 9.76342 128.56 9.02931 129.454 9.02931H134.461C135.355 9.02931 136.086 9.76342 136.086 10.6607C136.086 11.5579 135.355 12.2921 134.461 12.2921Z" fill="#E3E3E3"/>
<path d="M118.725 17.2025L122.269 13.6461L118.725 17.2025ZM118.725 18.8339C118.303 18.8339 117.896 18.6707 117.571 18.3608C116.937 17.7245 116.937 16.6968 117.571 16.0605L121.115 12.5042C121.749 11.8679 122.773 11.8679 123.407 12.5042C124.041 13.1404 124.041 14.1682 123.407 14.8044L119.863 18.3608C119.57 18.6707 119.148 18.8339 118.725 18.8339Z" fill="#E3E3E3"/>
<path d="M128.219 7.67529L131.763 4.1189L128.219 7.67529ZM128.219 9.30666C127.797 9.30666 127.39 9.14352 127.065 8.83356C126.431 8.19733 126.431 7.16956 127.065 6.53333L130.609 2.97693C131.243 2.3407 132.267 2.3407 132.901 2.97693C133.535 3.61317 133.535 4.64093 132.901 5.27717L129.373 8.83356C129.048 9.14352 128.642 9.30666 128.219 9.30666Z" fill="#E3E3E3"/>
<path d="M131.763 17.2025L128.219 13.6461L131.763 17.2025ZM131.763 18.8339C131.34 18.8339 130.934 18.6707 130.609 18.3608L127.065 14.8044C126.431 14.1682 126.431 13.1404 127.065 12.5042C127.699 11.8679 128.723 11.8679 129.357 12.5042L132.901 16.0605C133.535 16.6968 133.535 17.7245 132.901 18.3608C132.592 18.6707 132.169 18.8339 131.763 18.8339Z" fill="#E3E3E3"/>
<path d="M122.269 7.67529L118.725 4.1189L122.269 7.67529ZM122.269 9.30666C121.846 9.30666 121.44 9.14352 121.115 8.83356L117.571 5.27717C116.937 4.64093 116.937 3.61317 117.571 2.97693C118.205 2.3407 119.229 2.3407 119.863 2.97693L123.407 6.53333C124.041 7.16956 124.041 8.19733 123.407 8.83356C123.098 9.14352 122.691 9.30666 122.269 9.30666Z" fill="#E3E3E3"/>
<path d="M125.244 1.41079V6.43542V1.41079ZM125.244 8.0668C124.35 8.0668 123.619 7.33268 123.619 6.43542V1.41079C123.619 0.513537 124.35 -0.220581 125.244 -0.220581C126.138 -0.220581 126.87 0.513537 126.87 1.41079V6.43542C126.87 7.33268 126.138 8.0668 125.244 8.0668ZM125.244 14.8859V19.9106V14.8859ZM125.244 21.5419C124.35 21.5419 123.619 20.8078 123.619 19.9106V14.8859C123.619 13.9887 124.35 13.2546 125.244 13.2546C126.138 13.2546 126.87 13.9887 126.87 14.8859V19.9106C126.87 20.8078 126.138 21.5419 125.244 21.5419ZM116.028 10.6607H121.034H116.028ZM121.034 12.2921H116.028C115.134 12.2921 114.402 11.5579 114.402 10.6607C114.402 9.76342 115.134 9.02931 116.028 9.02931H121.034C121.928 9.02931 122.66 9.76342 122.66 10.6607C122.66 11.5579 121.928 12.2921 121.034 12.2921ZM129.454 10.6607H134.461H129.454ZM134.461 12.2921H129.454C128.56 12.2921 127.829 11.5579 127.829 10.6607C127.829 9.76342 128.56 9.02931 129.454 9.02931H134.461C135.355 9.02931 136.086 9.76342 136.086 10.6607C136.086 11.5579 135.355 12.2921 134.461 12.2921Z" fill="#E3E3E3"/>
<path d="M118.725 17.2025L122.269 13.6461L118.725 17.2025ZM118.725 18.8339C118.303 18.8339 117.896 18.6707 117.571 18.3608C116.937 17.7245 116.937 16.6968 117.571 16.0605L121.115 12.5042C121.749 11.8679 122.773 11.8679 123.407 12.5042C124.041 13.1404 124.041 14.1682 123.407 14.8044L119.863 18.3608C119.57 18.6707 119.148 18.8339 118.725 18.8339Z" fill="#E3E3E3"/>
<path d="M128.219 7.67529L131.763 4.1189L128.219 7.67529ZM128.219 9.30666C127.797 9.30666 127.39 9.14352 127.065 8.83356C126.431 8.19733 126.431 7.16956 127.065 6.53333L130.609 2.97693C131.243 2.3407 132.267 2.3407 132.901 2.97693C133.535 3.61317 133.535 4.64093 132.901 5.27717L129.373 8.83356C129.048 9.14352 128.642 9.30666 128.219 9.30666Z" fill="#E3E3E3"/>
<path d="M131.763 17.2025L128.219 13.6461L131.763 17.2025ZM131.763 18.8339C131.34 18.8339 130.934 18.6707 130.609 18.3608L127.065 14.8044C126.431 14.1682 126.431 13.1404 127.065 12.5042C127.699 11.8679 128.723 11.8679 129.357 12.5042L132.901 16.0605C133.535 16.6968 133.535 17.7245 132.901 18.3608C132.592 18.6707 132.169 18.8339 131.763 18.8339Z" fill="#E3E3E3"/>
<path d="M122.269 7.67529L118.725 4.1189L122.269 7.67529ZM122.269 9.30666C121.846 9.30666 121.44 9.14352 121.115 8.83356L117.571 5.27717C116.937 4.64093 116.937 3.61317 117.571 2.97693C118.205 2.3407 119.229 2.3407 119.863 2.97693L123.407 6.53333C124.041 7.16956 124.041 8.19733 123.407 8.83356C123.098 9.14352 122.691 9.30666 122.269 9.30666Z" fill="#E3E3E3"/>
</g>
<defs>
<filter id="filter0_d_819_15892" x="19.5723" y="33.0497" width="91.9453" height="75.7968" filterUnits="userSpaceOnUse" color-interpolation-filters="sRGB">
<feFlood flood-opacity="0" result="BackgroundImageFix"/>
<feColorMatrix in="SourceAlpha" type="matrix" values="0 0 0 0 0 0 0 0 0 0 0 0 0 0 0 0 0 0 127 0" result="hardAlpha"/>
<feOffset/>
<feGaussianBlur stdDeviation="1"/>
<feComposite in2="hardAlpha" operator="out"/>
<feColorMatrix type="matrix" values="0 0 0 0 0.890196 0 0 0 0 0.145098 0 0 0 0 0.862745 0 0 0 0.53 0"/>
<feBlend mode="normal" in2="BackgroundImageFix" result="effect1_dropShadow_819_15892"/>
<feBlend mode="normal" in="SourceGraphic" in2="effect1_dropShadow_819_15892" result="shape"/>
</filter>
<filter id="filter1_d_819_15892" x="19.5723" y="33.0497" width="91.9453" height="75.7968" filterUnits="userSpaceOnUse" color-interpolation-filters="sRGB">
<feFlood flood-opacity="0" result="BackgroundImageFix"/>
<feColorMatrix in="SourceAlpha" type="matrix" values="0 0 0 0 0 0 0 0 0 0 0 0 0 0 0 0 0 0 127 0" result="hardAlpha"/>
<feOffset/>
<feGaussianBlur stdDeviation="1"/>
<feComposite in2="hardAlpha" operator="out"/>
<feColorMatrix type="matrix" values="0 0 0 0 0.890196 0 0 0 0 0.145098 0 0 0 0 0.862745 0 0 0 0.53 0"/>
<feBlend mode="normal" in2="BackgroundImageFix" result="effect1_dropShadow_819_15892"/>
<feBlend mode="normal" in="SourceGraphic" in2="effect1_dropShadow_819_15892" result="shape"/>
</filter>
<filter id="filter2_d_819_15892" x="71.0508" y="52.5446" width="49.5293" height="36.8232" filterUnits="userSpaceOnUse" color-interpolation-filters="sRGB">
<feFlood flood-opacity="0" result="BackgroundImageFix"/>
<feColorMatrix in="SourceAlpha" type="matrix" values="0 0 0 0 0 0 0 0 0 0 0 0 0 0 0 0 0 0 127 0" result="hardAlpha"/>
<feOffset/>
<feGaussianBlur stdDeviation="1"/>
<feComposite in2="hardAlpha" operator="out"/>
<feColorMatrix type="matrix" values="0 0 0 0 0.890196 0 0 0 0 0.145098 0 0 0 0 0.862745 0 0 0 0.53 0"/>
<feBlend mode="normal" in2="BackgroundImageFix" result="effect1_dropShadow_819_15892"/>
<feBlend mode="normal" in="SourceGraphic" in2="effect1_dropShadow_819_15892" result="shape"/>
</filter>
<filter id="filter3_d_819_15892" x="-1.5918" y="-1.12756" width="24.0586" height="24.1311" filterUnits="userSpaceOnUse" color-interpolation-filters="sRGB">
<feFlood flood-opacity="0" result="BackgroundImageFix"/>
<feColorMatrix in="SourceAlpha" type="matrix" values="0 0 0 0 0 0 0 0 0 0 0 0 0 0 0 0 0 0 127 0" result="hardAlpha"/>
<feOffset/>
<feGaussianBlur stdDeviation="1"/>
<feComposite in2="hardAlpha" operator="out"/>
<feColorMatrix type="matrix" values="0 0 0 0 0.890196 0 0 0 0 0.145098 0 0 0 0 0.862745 0 0 0 0.53 0"/>
<feBlend mode="normal" in2="BackgroundImageFix" result="effect1_dropShadow_819_15892"/>
<feBlend mode="normal" in="SourceGraphic" in2="effect1_dropShadow_819_15892" result="shape"/>
</filter>
<clipPath id="clip0_819_15892">
<rect width="138" height="138" fill="white"/>
</clipPath>
</defs>
</svg>
