<svg width="24" height="24" viewBox="0 0 24 24" fill="none" xmlns="http://www.w3.org/2000/svg">
<path d="M6 2H18C19.5188 2 20.75 3.23125 20.75 4.75V19.25C20.75 20.7688 19.5188 22 18 22H6C4.48125 22 3.25 20.7688 3.25 19.25V4.75C3.25 3.23125 4.48125 2 6 2ZM6 3.5C5.83585 3.5 5.6733 3.53233 5.52165 3.59515C5.36999 3.65797 5.23219 3.75004 5.11612 3.86612C5.00004 3.98219 4.90797 4.11999 4.84515 4.27165C4.78233 4.4233 4.75 4.58585 4.75 4.75V19.25C4.75 19.4142 4.78233 19.5767 4.84515 19.7284C4.90797 19.88 5.00004 20.0178 5.11612 20.1339C5.23219 20.25 5.36999 20.342 5.52165 20.4049C5.6733 20.4677 5.83585 20.5 6 20.5H18C18.1642 20.5 18.3267 20.4677 18.4784 20.4049C18.63 20.342 18.7678 20.25 18.8839 20.1339C19 20.0178 19.092 19.88 19.1549 19.7284C19.2177 19.5767 19.25 19.4142 19.25 19.25V4.75C19.25 4.58585 19.2177 4.4233 19.1549 4.27165C19.092 4.11999 19 3.98219 18.8839 3.86612C18.7678 3.75004 18.63 3.65797 18.4784 3.59515C18.3267 3.53233 18.1642 3.5 18 3.5H6ZM10 18C9.80109 18 9.61032 17.921 9.46967 17.7803C9.32902 17.6397 9.25 17.4489 9.25 17.25C9.25 17.0511 9.32902 16.8603 9.46967 16.7197C9.61032 16.579 9.80109 16.5 10 16.5H14C14.1989 16.5 14.3897 16.579 14.5303 16.7197C14.671 16.8603 14.75 17.0511 14.75 17.25C14.75 17.4489 14.671 17.6397 14.5303 17.7803C14.3897 17.921 14.1989 18 14 18H10Z" fill="#C2C2C2"/>
</svg>
